<svg xmlns="http://www.w3.org/2000/svg" width="257" height="124" viewBox="0 0 257 124" fill="none"><script xmlns=""/>
  <path fill-rule="evenodd" clip-rule="evenodd" d="M22.2931 1.19717C24.241 1.99528 25.9454 3.05718 27.4064 4.38962H27.4199C28.8809 5.7153 30.0307 7.29124 30.8762 9.11067C31.7149 10.9301 32.1342 12.8577 32.1342 14.9004C32.1342 16.943 31.7149 18.8706 30.8762 20.6901C30.0307 22.5095 28.8809 24.0787 27.4199 25.4111C25.959 26.7368 24.2545 27.8055 22.3066 28.6036C20.3587 29.4017 18.2822 29.8007 16.0637 29.8007C13.8452 29.8007 11.7688 29.4017 9.82085 28.6036C7.87291 27.8055 6.16847 26.7436 4.70752 25.4111C3.25333 24.0854 2.09674 22.5095 1.25804 20.6901C0.419348 18.8706 0 16.943 0 14.9004C0 12.8577 0.419348 10.9301 1.25804 9.11067C2.09674 7.298 3.24656 5.72207 4.70752 4.38962C6.16847 3.06394 7.87291 1.99528 9.82085 1.19717C11.762 0.399057 13.8452 0 16.057 0C18.2687 0 20.3451 0.399057 22.2931 1.19717ZM70.4242 9.04975H40.3665V121.435H70.4242V9.04975ZM31.1602 36.2126H0.946837V121.435H31.1602V36.2126ZM245.637 97.9041C241.322 88.9761 232.881 82.767 223.087 81.3264L208.606 79.189L221.768 76.1657C230.419 74.1772 237.744 68.4416 241.755 60.5078L254.044 36.2127L233.645 36.2532C221.646 36.2803 210.824 43.4971 206.164 54.5828L199.001 71.6137V9.04975H168.477V121.435H199.001V85.7498L205.332 101.942C209.742 113.231 220.72 121.205 232.813 121.435H257L245.63 97.9041H245.637ZM138.608 36.4424C143.951 38.1604 148.368 40.8659 151.845 44.5588C155.321 48.2518 157.891 52.939 159.555 58.607C161.212 64.2817 162.044 71.0724 162.044 78.9792V87.8734H105.202C105.202 93.9066 106.399 98.3098 108.787 101.063C111.175 103.822 114.861 105.202 119.846 105.202C127.631 105.202 132.196 101.665 133.549 94.5897H161.733C160.901 99.791 159.318 104.241 156.985 107.934C154.645 111.627 151.662 114.644 148.03 116.984C144.391 119.331 140.211 121.049 135.49 122.138C130.762 123.227 125.547 123.775 119.839 123.775C106.027 123.775 95.4085 120.258 87.9888 113.237C80.569 106.216 76.8558 94.7994 76.8558 78.9792C76.8558 71.0724 77.6809 64.2817 79.3448 58.607C81.0019 52.939 83.545 48.2518 86.9742 44.5588C90.4034 40.8659 94.7863 38.1604 100.136 36.4424C105.486 34.7245 111.892 33.8655 119.372 33.8655C126.853 33.8655 133.258 34.7245 138.608 36.4424ZM108.706 57.8292C106.474 61.1028 105.358 65.8103 105.358 71.9517H133.698C133.698 65.8171 132.582 61.1096 130.35 57.8292C128.118 54.5488 124.506 52.912 119.528 52.912C114.55 52.912 110.938 54.5488 108.706 57.8292Z" fill="#CEFF00"/>
</svg>